<svg xmlns="http://www.w3.org/2000/svg" xmlns:xlink="http://www.w3.org/1999/xlink" viewBox="0 0 246.45 613.86"><defs><style>.cls-1{isolation:isolate;}.cls-2{fill:url(#Áåçûìÿííûé_ãðàäèåíò_151);}.cls-3{fill:url(#Áåçûìÿííûé_ãðàäèåíò_152);}.cls-4{fill:url(#Áåçûìÿííûé_ãðàäèåíò_152-2);}.cls-5{fill:url(#Áåçûìÿííûé_ãðàäèåíò_152-3);}.cls-6{fill:url(#Áåçûìÿííûé_ãðàäèåíò_152-4);}.cls-13,.cls-7,.cls-9{fill:#f2bac0;}.cls-10,.cls-11,.cls-12,.cls-19,.cls-7,.cls-8,.cls-9{fill-rule:evenodd;}.cls-11,.cls-13,.cls-7,.cls-8{opacity:0.6;}.cls-10,.cls-11,.cls-12,.cls-13,.cls-14,.cls-20,.cls-7,.cls-8,.cls-9{mix-blend-mode:multiply;}.cls-8{fill:url(#Áåçûìÿííûé_ãðàäèåíò_55);}.cls-10,.cls-9{opacity:0.2;}.cls-10,.cls-12,.cls-14,.cls-20{fill:#d97290;}.cls-11{fill:url(#Áåçûìÿííûé_ãðàäèåíò_409);}.cls-12{opacity:0.3;}.cls-14{opacity:0.5;}.cls-15,.cls-16{mix-blend-mode:screen;}.cls-15{fill:url(#Áåçûìÿííûé_ãðàäèåíò_59);}.cls-16{fill:url(#Áåçûìÿííûé_ãðàäèåíò_59-2);}.cls-17{fill:#f5fbfd;}.cls-17,.cls-18{opacity:0.97;mix-blend-mode:soft-light;}.cls-18{fill:#f5ee8f;}.cls-19{fill:#b34e61;}.cls-20{opacity:0.31;}</style><linearGradient id="Áåçûìÿííûé_ãðàäèåíò_151" x1="3406.55" y1="-2400.8" x2="3406.55" y2="-3091.89" gradientTransform="matrix(-1, 0.04, 0.04, 1, 3650.87, 2950.53)" gradientUnits="userSpaceOnUse"><stop offset="0.02" stop-color="#fbb780"/><stop offset="1" stop-color="#f58779"/></linearGradient><linearGradient id="Áåçûìÿííûé_ãðàäèåíò_152" x1="3426.33" y1="-2771.48" x2="3529.25" y2="-2874.4" gradientTransform="matrix(-1, 0.04, 0.04, 1, 3650.87, 2950.53)" gradientUnits="userSpaceOnUse"><stop offset="0" stop-color="#f58779"/><stop offset="0.98" stop-color="#fbb780"/></linearGradient><linearGradient id="Áåçûìÿííûé_ãðàäèåíò_152-2" x1="3301.7" y1="-2862.37" x2="3301.7" y2="-3007.27" xlink:href="#Áåçûìÿííûé_ãðàäèåíò_152"/><linearGradient id="Áåçûìÿííûé_ãðàäèåíò_152-3" x1="3370.62" y1="-2883.78" x2="3370.62" y2="-3096.07" xlink:href="#Áåçûìÿííûé_ãðàäèåíò_152"/><linearGradient id="Áåçûìÿííûé_ãðàäèåíò_152-4" x1="3433.57" y1="-2878.13" x2="3433.57" y2="-3061.9" xlink:href="#Áåçûìÿííûé_ãðàäèåíò_152"/><linearGradient id="Áåçûìÿííûé_ãðàäèåíò_55" x1="3452.63" y1="-2990.68" x2="3452.63" y2="-2992.9" gradientTransform="matrix(-1, 0.04, 0.04, 1, 3650.87, 2950.53)" gradientUnits="userSpaceOnUse"><stop offset="0.01" stop-color="#8f68ad"/><stop offset="1" stop-color="#feeadb"/></linearGradient><linearGradient id="Áåçûìÿííûé_ãðàäèåíò_409" x1="-3286.3" y1="-3020.58" x2="-3286.3" y2="-3022.29" gradientTransform="translate(3606.37 2952.87) rotate(-2.42)" gradientUnits="userSpaceOnUse"><stop offset="0" stop-color="#feeadb"/><stop offset="0.99" stop-color="#8f68ad"/></linearGradient><linearGradient id="Áåçûìÿííûé_ãðàäèåíò_59" x1="-814.26" y1="2304.61" x2="-703.07" y2="2304.61" gradientTransform="matrix(-0.99, 0.14, 0.14, 0.99, -957.63, -1854.58)" gradientUnits="userSpaceOnUse"><stop offset="0" stop-color="#010101"/><stop offset="0.03" stop-color="#0a0402"/><stop offset="0.39" stop-color="#692011"/><stop offset="0.68" stop-color="#ae351b"/><stop offset="0.89" stop-color="#d94222"/><stop offset="1" stop-color="#ea4724"/></linearGradient><linearGradient id="Áåçûìÿííûé_ãðàäèåíò_59-2" x1="901.51" y1="9585.84" x2="1005.35" y2="9585.84" gradientTransform="matrix(0.99, -0.14, -0.07, -0.47, -140.99, 4881.02)" xlink:href="#Áåçûìÿííûé_ãðàäèåíò_59"/></defs><g class="cls-1"><g id="Layer_2" data-name="Layer 2"><g id="Layer_2-2" data-name="Layer 2"><path class="cls-2" d="M112.68,613.86c-13.47-2.79-24.33-7.93-29-14.73,0,0,0-.18.1-.52,0-.08,0-.19.07-.29.16-.79.44-2.15.83-4,0-.15,0-.31.09-.46.12-.56.23-1.16.37-1.79.09-.45.19-.9.28-1.39.28-1.37.59-2.9.92-4.54a1.42,1.42,0,0,0,0-.2l.06-.29c0-.1,0-.23.08-.37l.09-.46c.1-.45.19-.93.29-1.4,0-.08,0-.17,0-.25.14-.68.28-1.38.41-2.09.24-1.17.48-2.38.73-3.63.13-.69.26-1.4.4-2.12,0-.11,0-.22.07-.33.29-1.53.6-3.1.91-4.7.07-.38.14-.77.22-1.17s.19-1,.27-1.47c.21-1.05.41-2.1.61-3.17l.33-1.84c.23-1.22.45-2.45.68-3.69.08-.47.18-.94.25-1.41.53-2.85,1-5.73,1.53-8.62.33-1.87,14.43-105.74,14.73-107.6l.06-.3c.21-1.3.42-2.6.63-3.88s.45-2.81.66-4.2c.14-.91.28-1.8.4-2.68.08-.46.14-.9.2-1.34q.5-3.34.9-6.48c.15-1.16.29-2.27.42-3.36.15-1.27.28-2.49.41-3.67q.1-1.12.21-2.16c.1-1.14.19-2.23.26-3.25.06-.85.11-1.65.13-2.41,0-.4,0-.79,0-1.17s0-.74,0-1.09,0-.71,0-1A80.22,80.22,0,0,0,111,388.68l-.6-.16-.31-.1c-1.78-.5-6.07-1.74-11.74-3.59L95.73,384l-.67-.22-1.39-.47-3-1.07-2.07-.73-.75-.27c-.76-.28-1.54-.56-2.31-.86q-2.34-.87-4.76-1.82l-1.61-.64-1.24-.51-1.33-.53-1.33-.56-2.62-1.12-1.37-.61L69.91,374c-1.78-.79-3.53-1.62-5.27-2.47-.43-.22-.87-.42-1.29-.64s-.87-.43-1.29-.65l-1.28-.66-2.5-1.34h0L56.09,367c-.89-.52-1.75-1-2.6-1.55S52,364.47,51.23,364c-1.49-1-2.89-2-4.22-3-.76-.57-1.49-1.16-2.18-1.74-.39-.31-.75-.63-1.11-1a35.36,35.36,0,0,1-3.8-3.87,12.23,12.23,0,0,1-.79-1c-.26-.32-.5-.65-.73-1,0,0,0,0,0,0-.22-.32-.43-.65-.63-1s-.39-.65-.56-1c0,0,0,0,0-.06-.18-.33-.34-.65-.49-1-9.8-21.67-8.24-76.37-10.11-96.5-.89-8.87-6.74-24.39-12.88-39.24l-.06,0C5.75,194.91-.3,179.41,0,177.43c.55-3.5,15.66-7.85,30.77-4.7s31.55,34.15,32.52,40.78-9.9,36.7-9.9,36.7l4.81,19.7,16.48,1.54-.13-18c-.08-8.58-.1-19.76-.18-32.49v0c-.08-32.84-.09-76.15.72-112.62a7.61,7.61,0,0,0,0-1.06c0-.77,0-1.17,0-1.17.57-28.17,1.5-52.06,3.08-63.4-.18-4.27,23.14-8.25,27-.06,2.65,5.58,8.94,41.79,11.22,54,1.84,9.93-2.54,33.12-4.22,41.58-.44,2-.67,3.15-.67,3.15l3.79,72.21,6.31-.26s2.54-50.6,6.27-103.92v0c2.61-37.91,1.27-74.93,4.71-98.42,1.33-7.91,19.84-9.14,26-3.25,0,0,6.58,12.66,7.58,20.2,4.67-2.39,20-2.79,22.7,7.26,0,0,4.85,14.82,6.66,37.53a1.2,1.2,0,0,1,0,.46,1.83,1.83,0,0,1,.08.61v0a187.6,187.6,0,0,1,.4,19.14c-.05.05-.05.05,0,.1a121.47,121.47,0,0,1-4.17,27.92l4.11,89.22,0,.3,15.23-.94s-.13-49-.21-86.85l0,0c0-12,0-22.92,0-30.81.15-5.27,29.7-1.48,32.76,7.1,1.41,3.89,2.43,23.5,2.6,37.88s-5.95,28.49-5.95,28.49l.15,64.41s.51,17.66.31,39.91c0,.7,0,1.46,0,2.27-.28,29.68-1.79,66.58-7.16,81.31L197.32,383.1S182.48,510.28,180,543.84c-1.5,20.31-3.51,43.68-6.13,66.4a98.3,98.3,0,0,1-13.2,3.62Z"/><path class="cls-3" d="M13.62,213.68l.06,0c6.14,14.85,12,30.37,12.88,39.24,1.61,17.29.68,60.08,6.61,85.54,8-30.11,41.52-67.06,41.52-67.06l-16.48-1.54-4.81-19.7s10.92-30.12,9.9-36.7-17.45-37.63-32.52-40.78S.56,173.93,0,177.43C-.3,179.41,5.75,194.91,13.62,213.68Z"/><path class="cls-4" d="M211.3,209.48l29.35,20.19-.15-64.41s6.15-14.06,5.95-28.48-1.66-33.88-2.6-37.89c-3.37-14.52-32.89-17.83-32.76-7.1.1,7.89,0,18.79,0,30.81l0,0C211.17,160.51,211.3,209.48,211.3,209.48Z"/><path class="cls-5" d="M196.11,92.88a187.6,187.6,0,0,0-.4-19.14v0a1.83,1.83,0,0,0-.08-.61,1.2,1.2,0,0,0,0-.46c-1.81-22.71-6.66-37.53-6.66-37.53-2.69-10.05-18-9.65-22.7-7.26-1-7.54.85-15.3-12.39-23.69-13-8.27-25.12-2.87-26.45,5.05-3.44,23.49,3.12,62.2.51,100.11v0c-3.73,53.32-6.27,103.92-6.27,103.92l74.41-3.15-4.11-89.22A121.47,121.47,0,0,0,196.11,93C196.06,92.93,196.06,92.93,196.11,92.88Z"/><path class="cls-6" d="M112.21,138.17c5.81-8.64,11.19-85.64-5.68-97.08-14-9.47-28.52-2.74-28.34,1.53C76.61,54,75.68,77.85,75.11,106c0,0,0,.4,0,1.17a7.61,7.61,0,0,1,0,1.06v.26c-.81,36.42-.8,79.6-.72,112.36v0l41-7.39-3.79-72.21A3.73,3.73,0,0,1,112.21,138.17Z"/><path class="cls-7" d="M153.68,315.82s-38.16-36-79-44.37l-.14-18s96.71-20.17,128.45.39c0,0-1.92,33.35-10,44.64S153.68,315.82,153.68,315.82Z"/><path class="cls-8" d="M75.11,107.19c0-.77,0-1.17,0-1.17v2.23A7.61,7.61,0,0,0,75.11,107.19Z"/><path class="cls-9" d="M74.8,220.46v0l34.85-6.29h0l6.07-1.09-3.08-58.57L112,140.91s.23-1.16.67-3.15c-1.36.41-18.59,5.23-27.94,4-8-1.06-9-25.6-9.17-33.67Z"/><path class="cls-10" d="M122.06,212.86l74.41-3.14-4-86.15-.14-3.08a120.94,120.94,0,0,0,4.18-27.92,40.79,40.79,0,0,1-8.14,19.14l-20.6-4.48s3.17-66.64-1.14-79.81c0,0,1.1,50.45-4.43,80,0,0-21.12,19.14-33.9,1.49-.75,10.82-1.47,21.54-2.11,31.75C123.67,180.73,122.06,212.86,122.06,212.86Z"/><path class="cls-11" d="M195.6,72.63a7.46,7.46,0,0,1,.1,1.06c-.15-.86-.29-1.46-.36-1.71Z"/><path class="cls-9" d="M211.3,209.48l6.15,4.23h0l23.2,15.95-.15-64.41-16.33.6-13-43.26,0,0c0,8,0,16.52,0,25v0C211.21,179.07,211.3,209.48,211.3,209.48Z"/><path class="cls-12" d="M74.68,271.45s45.3,8.07,70.53,37.07c0,0-18.48-38.06-70.67-55.1Z"/><path class="cls-13" d="M112.4,404.33c.19,15.36-21.52,159.1-25.91,181,2.12-8.45,35.33-170.72,33.69-194.44-.31-4.55-1.4-7.77-3.53-9a4.54,4.54,0,0,0-2.84-.52C103.74,382.45,72,371.08,47,361c21.19,16,64,27.65,64,27.65.06.31.13.64.18.95A81.11,81.11,0,0,1,112.4,404.33Z"/><path class="cls-14" d="M47,361c21.19,16,64,27.65,64,27.65.06.31,5.66-6.81,5.66-6.81h0a4.54,4.54,0,0,0-2.84-.52C103.74,382.45,72,371.08,47,361Z"/><path class="cls-15" d="M169.51,346.83c2.72,8.27-64.87,11-95.68-3.32-21.44-9.94-19.73-17.69-19.36-22.17s13-28.65,33.29-28.86S161.72,323.17,169.51,346.83Z"/><path class="cls-16" d="M123.57,220.73c-2.06-3.84,53-7.2,79.55-3.68,14.09,1.87,37.75,27,23.75,27C206.72,244.1,129.45,231.71,123.57,220.73Z"/><path class="cls-17" d="M91.06,370.61s-25.74-7.38-30.51-10S42.28,353,40.6,346.87s-8-52.05-8-52.05,8.56,44.54,13.25,52.78S91.06,370.61,91.06,370.61Z"/><path class="cls-17" d="M189.09,393.35s-17.2,199.79-21.8,203.32-26.44,6.91-26.44,6.91,12.09-4.39,18.85-11.3S189.09,393.35,189.09,393.35Z"/><path class="cls-17" d="M230.49,286.45s3.52,39.73,0,53.14S207.69,365,207.69,365s13.52-11.45,17.94-29.89S230.49,286.45,230.49,286.45Z"/><path class="cls-18" d="M80.59,44.35s19.54,4.13,29.73,11.12c0,0-3.61-10.2-11.22-13.29S80.59,44.35,80.59,44.35Z"/><path class="cls-17" d="M111.1,61.1s1.75,47.44-6.55,72.15c0,0,9.61-21.46,10.58-42.91S111.1,61.1,111.1,61.1Z"/><path class="cls-18" d="M215.56,91.67s15.32,3.24,23.32,8.72c0,0-3-7.75-8.81-10.42C222,86.27,213.6,90.5,215.56,91.67Z"/><path class="cls-17" d="M239.49,104.8s1.37,37.21-5.14,56.59c0,0,7.53-16.83,8.3-33.65S239.49,104.8,239.49,104.8Z"/><path class="cls-18" d="M131.63,8.49s19.9,5.13,30.2,11.58c0,0-3.56-9.52-11.28-12.34S131.63,8.49,131.63,8.49Z"/><path class="cls-18" d="M168.44,28.59a22.46,22.46,0,0,1,5.51-.31c7.48.66,12.08,7,12.08,7a93.88,93.88,0,0,0-16.62-2.42A20.93,20.93,0,0,0,168.44,28.59Z"/><path class="cls-17" d="M185.68,39s6.9,42.67,4,67.41c0,0,4.33-21.58,2-42.8S185.68,39,185.68,39Z"/><path class="cls-18" d="M6.52,179.32s16-3.08,25.94-2c0,0-9-4.09-15.76-3.69A13.78,13.78,0,0,0,6.52,179.32Z"/><path class="cls-17" d="M8,182.91S24,216.28,40.42,230c0,0-16.35-10.91-25.12-25.29S8,182.91,8,182.91Z"/><path class="cls-17" d="M120.55,388.81S97,571.53,91,594.83C91,594.83,123.72,437,120.55,388.81Z"/><path class="cls-19" d="M161.67,136.28,157,211.77l5.5-.23C157.75,191.18,161.36,165.54,161.67,136.28Z"/><path class="cls-12" d="M161.67,136.28,157,211.77l20.22-.85c-1.07-4.56-10.55-9.93-10.55-9.93l-1.32-97.67Z"/><path class="cls-12" d="M96.66,216.9l12.61-2.27,6.06-1.1-3.79-72.21C109.27,174,107.61,208.51,96.66,216.9Z"/><path class="cls-12" d="M211.14,147.63c.07,31.44.16,61.85.16,61.85l6.15,4.23C214.36,196.64,212.57,173,211.14,147.63Z"/><path class="cls-12" d="M185.85,210.55l10.2-.43-4-86.15C191.8,155,189.85,184,185.85,210.55Z"/><path class="cls-20" d="M112.68,613.86c-13.47-2.79-24.33-7.93-29-14.73,0,0,0-.18.1-.52,0-.08,0-.19.07-.29.16-.79.44-2.15.83-4,0-.15,0-.31.09-.46.12-.56.23-1.16.37-1.79.09-.45.19-.9.28-1.39.28-1.37.59-2.9.92-4.54a1.42,1.42,0,0,0,0-.2l.06-.29c0-.1,0-.23.08-.37l.09-.46c.1-.45.19-.93.29-1.4,0-.08,0-.17,0-.25.14-.68.28-1.38.41-2.09.24-1.17.48-2.38.73-3.63.13-.69.27-1.41.4-2.12,0-.11,0-.22.07-.33.29-1.53.6-3.1.91-4.7.07-.38.14-.77.22-1.17s.19-1,.27-1.47c.21-1.05.41-2.1.61-3.17l.33-1.84c.23-1.22.45-2.45.68-3.69.08-.47.17-.94.25-1.41.53-2.85,1-5.73,1.53-8.62.33-1.87,14.43-105.74,14.73-107.6l.06-.3c.21-1.3.42-2.6.63-3.88s.45-2.81.66-4.2c.13-.9.27-1.79.4-2.68.06-.45.14-.9.2-1.34q.5-3.34.9-6.48c.14-1.15.29-2.27.42-3.36.15-1.27.28-2.49.41-3.67q.1-1.12.21-2.16c.1-1.14.19-2.23.26-3.25.06-.85.11-1.65.13-2.41,0-.4,0-.79,0-1.17s0-.74,0-1.09,0-.71,0-1A80.22,80.22,0,0,0,111,388.68l-.6-.16-.31-.1c-1.78-.5-6.07-1.74-11.74-3.59L95.73,384l-.67-.22-1.39-.47-3-1.07-2.07-.73-.75-.27c-.76-.28-1.54-.56-2.31-.86q-2.34-.87-4.76-1.82l-1.61-.64-1.24-.51-1.33-.53-1.33-.56-2.62-1.12-1.37-.61L69.91,374c-1.78-.79-3.53-1.62-5.27-2.47-.43-.22-.87-.42-1.29-.64s-.87-.43-1.29-.65l-1.28-.66-2.5-1.34h0L56.09,367c-.89-.52-1.75-1-2.6-1.55S52,364.47,51.23,364c-1.49-1-2.89-2-4.22-3-.76-.57-1.49-1.16-2.18-1.74-.39-.31-.75-.63-1.11-1a35.36,35.36,0,0,1-3.8-3.87,12.23,12.23,0,0,1-.79-1c-.26-.32-.5-.65-.73-1,0,0,0,0,0,0-.22-.32-.43-.65-.63-1s-.39-.65-.56-1c0,0,0,0,0-.06-.18-.33-.34-.65-.49-1-9.8-21.67-8.24-76.37-10.11-96.5-.89-8.87-6.74-24.39-12.88-39.24,1.3,1.26,21.9,20.86,25.61,20.8s20.93-10.28,24-21c1,6.58-9.9,36.7-9.9,36.7l4.81,19.7,16.48,1.54s-31.83,33.44-22.7,68c0,0,53.59,22.23,103.46,18.25s76.83-24.12,76.83-24.12,8.09-40.22,8.66-61.77c-.28,29.68-1.79,66.58-7.16,81.31L197.32,383.1S182.48,510.28,180,543.84c-1.5,20.31-3.51,43.68-6.13,66.4a98.3,98.3,0,0,1-13.2,3.62Z"/><path class="cls-12" d="M122.06,212.86l29.4-1.24c-1-1.59-15.77-5.12-15.77-5.12l-6.21-22.25-3.26-43.55C123.67,180.73,122.06,212.86,122.06,212.86Z"/></g></g></g></svg>