<svg xmlns="http://www.w3.org/2000/svg" xmlns:xlink="http://www.w3.org/1999/xlink" viewBox="0 0 250.36 428.32"><defs><style>.cls-1{isolation:isolate;}.cls-2{fill:url(#Áåçûìÿííûé_ãðàäèåíò_152);}.cls-3{fill:url(#Áåçûìÿííûé_ãðàäèåíò_151);}.cls-4,.cls-6,.cls-7{fill:#d97290;}.cls-4{opacity:0.31;}.cls-4,.cls-6,.cls-7,.cls-8{mix-blend-mode:multiply;}.cls-5{fill:#f4af8f;}.cls-10,.cls-11,.cls-14,.cls-15,.cls-5{opacity:0.97;mix-blend-mode:soft-light;}.cls-6{opacity:0.5;}.cls-7{opacity:0.3;}.cls-8{fill:#f2bac0;opacity:0.6;}.cls-9{fill:#e86c7d;}.cls-10{fill:#f5d4d2;}.cls-11{fill:#f5ee8f;}.cls-12{mix-blend-mode:screen;fill:url(#Áåçûìÿííûé_ãðàäèåíò_54);}.cls-13{fill:#ab3f53;}.cls-14{fill:#f5fbfd;}.cls-15{fill:#f4a996;}</style><linearGradient id="Áåçûìÿííûé_ãðàäèåíò_152" x1="4930.55" y1="-1305.28" x2="4930.55" y2="-1457.31" gradientTransform="matrix(-1, -0.01, -0.01, 1, 5009.24, 1526.25)" gradientUnits="userSpaceOnUse"><stop offset="0" stop-color="#f58779"/><stop offset="0.98" stop-color="#fbb780"/></linearGradient><linearGradient id="Áåçûìÿííûé_ãðàäèåíò_151" x1="4900.44" y1="-1028.03" x2="4900.44" y2="-1435.58" gradientTransform="matrix(-1, -0.01, -0.01, 1, 5009.24, 1526.25)" gradientUnits="userSpaceOnUse"><stop offset="0.02" stop-color="#fbb780"/><stop offset="1" stop-color="#f58779"/></linearGradient><linearGradient id="Áåçûìÿííûé_ãðàäèåíò_54" x1="4793.7" y1="-1291.32" x2="4979.56" y2="-1291.32" gradientTransform="matrix(-1, -0.01, -0.01, 1, 5009.24, 1526.25)" gradientUnits="userSpaceOnUse"><stop offset="0" stop-color="#ea4724"/><stop offset="0.11" stop-color="#d94222"/><stop offset="0.32" stop-color="#ae351b"/><stop offset="0.61" stop-color="#692011"/><stop offset="0.97" stop-color="#0a0402"/><stop offset="1" stop-color="#010101"/></linearGradient></defs><g class="cls-1"><g id="Layer_2" data-name="Layer 2"><g id="Layer_3" data-name="Layer 3"><path class="cls-2" d="M196.68,107.6s-1.38-62-3.27-73.75S177.43,3.24,169.87.67,141.29,3.24,133.18,11c-3.89,3.73-5.08,10.19-5.08,10.19s-5.46-5.42-17.75-7.44S79,20.73,77.44,32.61c0,0-30.82,1.62-42.2,22.19,0,0-1.51,5.32-.21,14.57C35,69.37,4.93,78.8,1,96.6s5.51,45,5.51,45,34.69,15.28,103,6S196.68,107.6,196.68,107.6Z"/><path class="cls-3" d="M24.55,228.94c6.83,11.18,22.64,23.73,24.63,30.32s-2.51,117,1,158.94c0,0,31.7,21.8,100.16,1.42,0,0-16.4-138.41-12.53-151.91a.48.48,0,0,1,.07-.2c4.29-13.59,55-47.78,74.63-56.76,0,0,0,0,.06,0a.11.11,0,0,1,.07,0c19.63-9,31.36-24.9,32.38-32.27.61-4.41,0-19.44-.52-34.2-.35-10-.6-19.94-.31-26.34.68-15.85,6.83-36.79,6.09-42.14s-7.18-13.65-11.47-16.18c-3.48-2.07-26.19-7.82-44.37-13.93-4.14-1.36-8-2.75-11.41-4.13-18.39-7.44-38.69-19.82-42.2-20.1-1.17-.08-3.07,1.25-5,3.47l-.17.16A35.62,35.62,0,0,0,130,33.85s0,.09,0,.12a21.82,21.82,0,0,0-2.15,9.63s.06.42.15,1.2c1.82,10.89,21.28,39,54,45.14l14.2-2.36.62-.09s1.61,17.05-.09,20.12a.34.34,0,0,1-.13.16c-3.3,3.3-50.82,14.16-87.07,39.85,0,0-63.92,3.08-92.54-2.65a.67.67,0,0,1-.22,0,50.6,50.6,0,0,1-6.38-1.65c-.23-.07-.42-.17-.65-.24a14.89,14.89,0,0,1-3-1.31,1.74,1.74,0,0,1-.23-.1S16.12,206.94,23,225.47A19.07,19.07,0,0,0,24.55,228.94Z"/><path class="cls-4" d="M.06,101.72c0,1.3-.07,2.63-.06,3.9,0,.85,0,1.63,0,2.44,0,1.69.14,3.38.28,5,.06.58.11,1.17.17,1.72.17,1.83.41,3.55.67,5.25a116.75,116.75,0,0,0,5,20.74,6.25,6.25,0,0,0,.28.85,1,1,0,0,0,.23.1,26.48,26.48,0,0,0,3,1.31c.23.07.42.17.65.24,26.47,10.06,90.34,10.58,90.34,10.58L85.93,171.21s25.51-15.76,53.66-29.76a323.52,323.52,0,0,1,37.32-16.18c11.31-3.87,21.15-5.91,27.7-4.71,28.3,5.18,39.91,23.65,39.91,23.65-.35-10-.6-19.94-.31-26.34.68-15.85,6.83-36.79,6.09-42.14-6.48,7.91-52.62,7.15-58.38,5.22-27-9-55.23-43.79-55.33-50.36-.11-6.18,3.73-8.85,4.23-9.17a18.58,18.58,0,0,0-5,3.44l-.17.16A25,25,0,0,0,130,33.85s0,.09,0,.12a32.92,32.92,0,0,0-2.15,9.63s.06.42.15,1.2c0,.62.14,1.5.22,2.54,1.09,12.34,4.15,50.93-1.22,55.93-6.39,5.92-45.67,6.59-48,.39s-1.46-71-1.46-71c-2.58,19.63-2.09,71.48-2.75,74.4s-30,7.11-33.12,2c-3-4.78-6.09-35.38-6.49-39.19.64,18.83,3.48,47.57,3.48,47.57-5,3.93-26.42,3.85-28.95,1.86C7.25,117.39,1.16,104.14.19,102A1.86,1.86,0,0,1,.06,101.72Z"/><path class="cls-5" d="M183.05,41.49a5.09,5.09,0,0,1-.06,4.33c-1.17,2-23.6,2-33.83-4s-6-19.7-6-19.7Z"/><path class="cls-6" d="M215.18,84.36l-19,3.22.12,4.64S200.51,90.31,215.18,84.36Z"/><path class="cls-7" d="M11.9,138l-5.42,3.59s50.14,14.69,94.19,12.23c0,0,79.82-33.32,96-46.25l.09-20.12s-12,2.07-14.83,2.45-10.72-2.13-10.72-2.13-5,11.14-11.6,13.09c-2.71.81-6.81.85-10.83.53C143,101,137.33,99.71,136,98.72c-2.25-1.66-4.41-23.18-4.41-23.18s1,44.91-.7,49-38.86,19.37-45.9,9c0,0-22.45,6.08-29.59,3S45.71,126,45.71,126s-1.17,11.68-10.24,13.64S18.45,138.52,15,135a12.26,12.26,0,0,1-1.05-1.28c-3.6-4.86-10-17.31-10.88-19l6.2,16.37Z"/><path class="cls-7" d="M150.36,419.62S134,281.21,137.83,267.71s55.1-48,74.76-57c-2.8.78-92.58,25.47-98.73,32.63C107.58,250.66,113.66,374.34,150.36,419.62Z"/><path class="cls-8" d="M49.18,259.26c2,6.59-2.51,117,1,158.94,0,0,31.7,21.8,100.16,1.42,0,0-16.4-138.41-12.53-151.91a.48.48,0,0,1,.07-.2c0-.1.09-.21.12-.31,1.31-3.09,11.06-20.59,74.51-56.45-2.39.71-79.5,24.35-119.57,30.47-40.75,6.19-70-15.75-70-15.75a19.07,19.07,0,0,0,1.58,3.47C31.38,240.12,47.19,252.67,49.18,259.26Z"/><path class="cls-9" d="M183.05,41.49s.4,4.85-10.76,5.5a45.83,45.83,0,0,1-24.43-6s10.86,8.92,30.22,6.58S183.05,41.49,183.05,41.49Z"/><path class="cls-10" d="M148.1,24.53s-4.31,5.66-.24,16.46c0,0-8.56-4.34-4.67-18.85Z"/><path class="cls-10" d="M176.81,38.46a7.88,7.88,0,0,0,3,6.91s3-1.56,3.21-3.88Z"/><path class="cls-6" d="M.06,101.72c0,1.3-.07,2.63-.06,3.9,0,.85,0,1.63,0,2.44,0,1.69.14,3.38.28,5,.06.58.11,1.17.17,1.72.17,1.83.41,3.55.67,5.25a116.75,116.75,0,0,0,5,20.74,6.25,6.25,0,0,0,.28.85,1,1,0,0,0,.23.1,26.48,26.48,0,0,0,3,1.31c.23.07.42.17.65.24,26.47,10.06,90.34,10.58,90.34,10.58l96-46.25.09-20.12s-11.87,2.43-17.55,2.12S146,80.91,128.16,47.34c1.09,12.34,4.15,50.93-1.22,55.93-6.39,5.92-45.67,6.59-48,.39s-1.46-71-1.46-71c-2.58,19.63-2.09,71.48-2.75,74.4s-30,7.11-33.12,2c-3-4.78-6.09-35.38-6.49-39.19.64,18.83,3.48,47.57,3.48,47.57-5,3.93-26.42,3.85-28.95,1.86C7.25,117.39,1.16,104.14.19,102A1.86,1.86,0,0,1,.06,101.72Z"/><polygon class="cls-6" points="181.24 40.61 183.35 20.16 184.99 34.14 190.32 35.03 192.43 44.94 181.24 40.61"/><path class="cls-6" d="M89.81,136.77s-8.18-19.54-10.92-33.11S75.6,64.05,75.6,64.05s-1.28,36-.92,43S85,133.52,85,133.52A48.87,48.87,0,0,0,89.81,136.77Z"/><path class="cls-6" d="M45.72,126s-3.17-10-5.19-19.63-5.5-37-5.5-37,3.11,41.2,4.37,46.36S45.72,126,45.72,126Z"/><path class="cls-6" d="M171.2,87.8s-28.27-10-43-40.46c0,0,13.21,36.89,38,48.64Z"/><path class="cls-6" d="M128.16,47.34s2-12.52,8.68-15.52c0,0-1.25-4.91,4-10.4C140.82,21.42,126.77,27.86,128.16,47.34Z"/><path class="cls-5" d="M241.23,61.36s-9.16,3.44-9.47,11.5,18.54,2.87,18.54,2.87S247.36,64.67,241.23,61.36Z"/><path class="cls-11" d="M169.87.67s-10.93,6.62-21.57,10-15.12.4-15.12.4S149.58-2.08,169.87.67Z"/><path class="cls-11" d="M75.59,32.77S69.44,39.38,57,46.33,35.68,54,35.68,54,39.57,39.33,75.59,32.77Z"/><path class="cls-11" d="M110.35,13.78S100,19.13,91.43,22.85s-11.52,3.6-11.52,3.6S87.43,12.12,110.35,13.78Z"/><path class="cls-11" d="M35,69.37S26.92,73.59,16.24,80.6c-7,4.6-14.73,14.12-14.73,14.12S4.72,79.15,35,69.37Z"/><path class="cls-12" d="M233.46,133s6.95,24.5-12.36,47S57.61,213.88,48.45,208.38,148.27,127,187.08,122.23,233.46,133,233.46,133Z"/><path class="cls-6" d="M138,267.2a31.1,31.1,0,0,1-24.16-23.86l98.67-32.59S146.34,250.59,138,267.2Z"/><path class="cls-13" d="M196.67,107.61s-9.89-10.83-14.38-13-13.72-2.5-13.72-2.5l2.63-4.26s6.83,2.29,10.73,2.14,14.83-2.45,14.83-2.45S198.25,104.35,196.67,107.61Z"/><path class="cls-13" d="M15,135s3.1,8.46,33.82,8.48,73.21-9.4,79.32-13.41c5.11-3.34,16.06-21.64,20.65-28.63C143,101,137.33,99.71,136,98.72c-2.25-1.66-4.41-23.18-4.41-23.18s1,44.91-.7,49-38.86,19.37-45.9,9c0,0-22.45,6.08-29.59,3S45.71,126,45.71,126s-1.17,11.68-10.24,13.64S18.45,138.52,15,135Z"/><path class="cls-13" d="M3.06,114.7l6.2,16.37,4.68,2.64C10.34,128.85,3.91,116.4,3.06,114.7Z"/><path class="cls-14" d="M23.1,216.2s-9.78-38.74-14.91-70.12C8.19,146.08,23.32,180.17,23.1,216.2Z"/><path class="cls-14" d="M61,412s-7.34-82.83-8-128c0,0-5.35,87,.64,127.91Z"/><path class="cls-14" d="M239.51,181.4S234,199.7,215,206.82s-64.11,18.5-64.11,18.5S221.22,207.52,239.51,181.4Z"/><path class="cls-14" d="M39.26,60.6S39.07,89,42.94,105.42C42.94,105.42,34.35,88.66,39.26,60.6Z"/><path class="cls-14" d="M7.16,93.71s-1,15.27,4.18,24.9C11.34,118.61.8,106.87,7.16,93.71Z"/><path class="cls-14" d="M83.44,32.69s-5.16,34.88-.93,65.59C82.51,98.28,72,63.94,83.44,32.69Z"/><path class="cls-14" d="M237,61.3s-15.59-8.42-33-10.21A57.45,57.45,0,0,0,237,61.3Z"/><path class="cls-14" d="M247.32,83.43s-6.79,11.67-8,24.78,3.26,41.36,3.26,41.36S241.69,101.36,247.32,83.43Z"/><path class="cls-14" d="M147.83,416.29s-23.09-93.12-17.62-140.67C130.21,275.62,139.09,330.76,147.83,416.29Z"/><path class="cls-15" d="M128.92,116.49c-1.23,5.43-18.1,18.7-30.51,14.63,0,0,15.49-6.28,22.3-9.11S128.92,116.49,128.92,116.49Z"/><path class="cls-15" d="M79.58,131.55S54,139.25,48,126C48,126,65.85,134.58,79.58,131.55Z"/><path class="cls-15" d="M27.11,138.85s-9.71-6.71-13.14-7.1C14,131.75,17.57,138.83,27.11,138.85Z"/><path class="cls-7" d="M125,104.49s-9.58,6.62-25.12,7-21-7.85-21-7.85A71.58,71.58,0,0,0,125,104.49Z"/><path class="cls-7" d="M72.11,108.56a22,22,0,0,1-13.27,7.91c-9,1.72-16-6.4-16-6.4A48.86,48.86,0,0,0,72.11,108.56Z"/><path class="cls-7" d="M37.15,119a19.38,19.38,0,0,1-11.22,5.47c-6.78.69-14.61-4.6-14.61-4.6S19.59,122.78,37.15,119Z"/></g></g></g></svg>