<svg xmlns="http://www.w3.org/2000/svg" xmlns:xlink="http://www.w3.org/1999/xlink" viewBox="0 0 250.36 428.32"><defs><style>.cls-1{isolation:isolate;}.cls-2{fill:url(#Áåçûìÿííûé_ãðàäèåíò_152);}.cls-3{fill:url(#Áåçûìÿííûé_ãðàäèåíò_151);}.cls-4,.cls-6,.cls-7{fill:#d97290;}.cls-4{opacity:0.31;}.cls-4,.cls-6,.cls-7,.cls-8{mix-blend-mode:multiply;}.cls-5{fill:#f4af8f;}.cls-10,.cls-11,.cls-14,.cls-15,.cls-5{opacity:0.97;mix-blend-mode:soft-light;}.cls-6{opacity:0.5;}.cls-7{opacity:0.3;}.cls-8{fill:#f2bac0;opacity:0.6;}.cls-9{fill:#e86c7d;}.cls-10{fill:#f5d4d2;}.cls-11{fill:#f5ee8f;}.cls-12{mix-blend-mode:screen;fill:url(#Áåçûìÿííûé_ãðàäèåíò_54);}.cls-13{fill:#ab3f53;}.cls-14{fill:#f5fbfd;}.cls-15{fill:#f4a996;}</style><linearGradient id="Áåçûìÿííûé_ãðàäèåíò_152" x1="4930.55" y1="-1305.28" x2="4930.55" y2="-1457.31" gradientTransform="translate(-4758.88 1526.25) rotate(-0.81)" gradientUnits="userSpaceOnUse"><stop offset="0" stop-color="#f58779"/><stop offset="0.98" stop-color="#fbb780"/></linearGradient><linearGradient id="Áåçûìÿííûé_ãðàäèåíò_151" x1="4900.44" y1="-1028.03" x2="4900.44" y2="-1435.58" gradientTransform="translate(-4758.88 1526.25) rotate(-0.81)" gradientUnits="userSpaceOnUse"><stop offset="0.02" stop-color="#fbb780"/><stop offset="1" stop-color="#f58779"/></linearGradient><linearGradient id="Áåçûìÿííûé_ãðàäèåíò_54" x1="4793.7" y1="-1291.32" x2="4979.56" y2="-1291.32" gradientTransform="translate(-4758.88 1526.25) rotate(-0.81)" gradientUnits="userSpaceOnUse"><stop offset="0" stop-color="#ea4724"/><stop offset="0.11" stop-color="#d94222"/><stop offset="0.32" stop-color="#ae351b"/><stop offset="0.61" stop-color="#692011"/><stop offset="0.97" stop-color="#0a0402"/><stop offset="1" stop-color="#010101"/></linearGradient></defs><g class="cls-1"><g id="Layer_2" data-name="Layer 2"><g id="Layer_3" data-name="Layer 3"><path class="cls-2" d="M53.69,107.6s1.37-62,3.26-73.75S72.94,3.24,80.5.67,109.07,3.24,117.19,11c3.89,3.73,5.07,10.19,5.07,10.19s5.47-5.42,17.75-7.44,31.31,7,32.92,18.83c0,0,30.81,1.62,42.19,22.19,0,0,1.52,5.32.21,14.57,0,0,30.11,9.43,34.06,27.23s-5.52,45-5.52,45-34.68,15.28-103,6S53.69,107.6,53.69,107.6Z"/><path class="cls-3" d="M225.82,228.94c-6.83,11.18-22.65,23.73-24.63,30.32s2.51,117-1,158.94c0,0-31.71,21.8-100.17,1.42,0,0,16.4-138.41,12.53-151.91a.54.54,0,0,0-.06-.2c-4.29-13.59-55-47.78-74.63-56.76,0,0,0,0-.07,0a.09.09,0,0,0-.06,0c-19.63-9-31.37-24.9-32.38-32.27-.62-4.41,0-19.44.52-34.2.34-10,.59-19.94.3-26.34C5.47,102-.68,81.08.06,75.73S7.25,62.08,11.53,59.55C15,57.48,37.72,51.73,55.9,45.62c4.14-1.36,8-2.75,11.42-4.13,18.39-7.44,38.69-19.82,42.19-20.1,1.17-.08,3.08,1.25,5,3.47l.16.16a35.93,35.93,0,0,1,5.69,8.83s0,.09,0,.12a21.82,21.82,0,0,1,2.15,9.63s-.06.42-.14,1.2c-1.83,10.89-21.29,39-54,45.14L54.22,87.58l-.62-.09s-1.61,17.05.09,20.12c0,.06.07.13.14.16,3.29,3.3,50.81,14.16,87.06,39.85,0,0,63.92,3.08,92.54-2.65a.73.73,0,0,0,.23,0,51.05,51.05,0,0,0,6.38-1.65c.22-.07.42-.17.64-.24a14.74,14.74,0,0,0,3-1.31,1.56,1.56,0,0,0,.22-.1s-9.63,65.31-16.49,83.84A19.14,19.14,0,0,1,225.82,228.94Z"/><path class="cls-4" d="M250.3,101.72c0,1.3.07,2.63.06,3.9,0,.85,0,1.63,0,2.44,0,1.69-.15,3.38-.29,5,0,.58-.11,1.17-.17,1.72-.17,1.83-.4,3.55-.67,5.25a115.83,115.83,0,0,1-5,20.74,6.25,6.25,0,0,1-.28.85.9.9,0,0,1-.22.1,27.5,27.5,0,0,1-3,1.31c-.22.07-.42.17-.64.24-26.48,10.06-90.35,10.58-90.35,10.58l14.75,17.35s-25.52-15.76-53.67-29.76a322.77,322.77,0,0,0-37.32-16.18c-11.3-3.87-21.15-5.91-27.7-4.71-28.3,5.18-39.9,23.65-39.9,23.65.34-10,.59-19.94.3-26.34C5.47,102-.68,81.08.06,75.73,6.54,83.64,52.68,82.88,58.44,81c27-9,55.23-43.79,55.33-50.36.11-6.18-3.73-8.85-4.22-9.17a18.9,18.9,0,0,1,5,3.44l.16.16a24.9,24.9,0,0,1,5.69,8.83s0,.09,0,.12a32.92,32.92,0,0,1,2.15,9.63s-.06.42-.14,1.2c-.06.62-.14,1.5-.23,2.54-1.09,12.34-4.15,50.93,1.22,55.93,6.39,5.92,45.67,6.59,48.05.39s1.46-71,1.46-71c2.59,19.63,2.09,71.48,2.75,74.4s30,7.11,33.12,2c3-4.78,6.09-35.38,6.49-39.19-.64,18.83-3.48,47.57-3.48,47.57,5,3.93,26.42,3.85,29,1.86,2.34-1.82,8.43-15.07,9.41-17.2A2.34,2.34,0,0,0,250.3,101.72Z"/><path class="cls-5" d="M67.32,41.49a5.05,5.05,0,0,0,.06,4.33c1.16,2,23.59,2,33.82-4s6-19.7,6-19.7Z"/><path class="cls-6" d="M35.19,84.36l19,3.22-.12,4.64S49.85,90.31,35.19,84.36Z"/><path class="cls-7" d="M238.47,138l5.41,3.59s-50.14,14.69-94.19,12.23c0,0-79.82-33.32-96-46.25L53.6,87.49s12,2.07,14.83,2.45,10.73-2.13,10.73-2.13,5,11.14,11.59,13.09c2.71.81,6.81.85,10.83.53,5.78-.47,11.46-1.72,12.74-2.71,2.25-1.66,4.42-23.18,4.42-23.18s-1,44.91.69,49,38.86,19.37,45.9,9c0,0,22.45,6.08,29.59,3S204.65,126,204.65,126s1.18,11.68,10.24,13.64,17-1.09,20.48-4.62a12.26,12.26,0,0,0,1-1.28c3.61-4.86,10-17.31,10.88-19l-6.2,16.37Z"/><path class="cls-7" d="M100,419.62s16.4-138.41,12.53-151.91-55.09-48-74.76-57c2.81.78,92.58,25.47,98.73,32.63C142.78,250.66,136.71,374.34,100,419.62Z"/><path class="cls-8" d="M201.19,259.26c-2,6.59,2.51,117-1,158.94,0,0-31.71,21.8-100.17,1.42,0,0,16.4-138.41,12.53-151.91a.54.54,0,0,0-.06-.2l-.13-.31c-1.31-3.09-11-20.59-74.5-56.45,2.38.71,79.5,24.35,119.56,30.47,40.76,6.19,70-15.75,70-15.75a19.14,19.14,0,0,1-1.57,3.47C219,240.12,203.17,252.67,201.19,259.26Z"/><path class="cls-9" d="M67.32,41.49s-.4,4.85,10.76,5.5a45.78,45.78,0,0,0,24.42-6s-10.86,8.92-30.21,6.58S67.32,41.49,67.32,41.49Z"/><path class="cls-10" d="M102.26,24.53s4.32,5.66.24,16.46c0,0,8.57-4.34,4.67-18.85Z"/><path class="cls-10" d="M73.56,38.46a7.87,7.87,0,0,1-3,6.91s-3-1.56-3.2-3.88Z"/><path class="cls-6" d="M250.3,101.72c0,1.3.07,2.63.06,3.9,0,.85,0,1.63,0,2.44,0,1.69-.15,3.38-.29,5,0,.58-.11,1.17-.17,1.72-.17,1.83-.4,3.55-.67,5.25a115.83,115.83,0,0,1-5,20.74,6.25,6.25,0,0,1-.28.85.9.9,0,0,1-.22.1,27.5,27.5,0,0,1-3,1.31c-.22.07-.42.17-.64.24-26.48,10.06-90.35,10.58-90.35,10.58l-96-46.25L53.6,87.49s11.87,2.43,17.55,2.12,33.23-8.7,51.05-42.27c-1.09,12.34-4.15,50.93,1.22,55.93,6.39,5.92,45.67,6.59,48.05.39s1.46-71,1.46-71c2.59,19.63,2.09,71.48,2.75,74.4s30,7.11,33.12,2c3-4.78,6.09-35.38,6.49-39.19-.64,18.83-3.48,47.57-3.48,47.57,5,3.93,26.42,3.85,29,1.86,2.34-1.82,8.43-15.07,9.41-17.2A2.34,2.34,0,0,0,250.3,101.72Z"/><polygon class="cls-6" points="69.12 40.61 67.01 20.16 65.37 34.14 60.05 35.03 57.93 44.94 69.12 40.61"/><path class="cls-6" d="M160.55,136.77s8.19-19.54,10.92-33.11,3.29-39.61,3.29-39.61,1.29,36,.92,43-10.35,26.51-10.35,26.51A48.87,48.87,0,0,1,160.55,136.77Z"/><path class="cls-6" d="M204.64,126s3.17-10,5.19-19.63,5.5-37,5.5-37-3.1,41.2-4.37,46.36S204.64,126,204.64,126Z"/><path class="cls-6" d="M79.16,87.8s28.27-10,43-40.46c0,0-13.21,36.89-38,48.64Z"/><path class="cls-6" d="M122.2,47.34s-2-12.52-8.68-15.52c0,0,1.25-4.91-4-10.4C109.55,21.42,123.6,27.86,122.2,47.34Z"/><path class="cls-5" d="M9.13,61.36s9.16,3.44,9.47,11.5S.06,75.73.06,75.73,3,64.67,9.13,61.36Z"/><path class="cls-11" d="M80.5.67s10.92,6.62,21.57,10,15.12.4,15.12.4S100.78-2.08,80.5.67Z"/><path class="cls-11" d="M174.77,32.77s6.16,6.61,18.57,13.56S214.68,54,214.68,54,210.79,39.33,174.77,32.77Z"/><path class="cls-11" d="M140,13.78s10.4,5.35,18.92,9.07,11.52,3.6,11.52,3.6S162.93,12.12,140,13.78Z"/><path class="cls-11" d="M215.33,69.37s8.11,4.22,18.79,11.23c7,4.6,14.74,14.12,14.74,14.12S245.65,79.15,215.33,69.37Z"/><path class="cls-12" d="M16.9,133S10,157.5,29.26,180s163.49,33.87,172.65,28.37S102.09,127,63.28,122.23,16.9,133,16.9,133Z"/><path class="cls-6" d="M112.34,267.2a31.09,31.09,0,0,0,24.16-23.86L37.84,210.75S104,250.59,112.34,267.2Z"/><path class="cls-13" d="M53.69,107.61s9.89-10.83,14.38-13,13.73-2.5,13.73-2.5L79.16,87.8s-6.82,2.29-10.73,2.14S53.6,87.49,53.6,87.49,52.12,104.35,53.69,107.61Z"/><path class="cls-13" d="M235.37,135s-3.1,8.46-33.82,8.48-73.21-9.4-79.31-13.41c-5.12-3.34-16.07-21.64-20.66-28.63,5.78-.47,11.46-1.72,12.74-2.71,2.25-1.66,4.42-23.18,4.42-23.18s-1,44.91.69,49,38.86,19.37,45.9,9c0,0,22.45,6.08,29.59,3S204.65,126,204.65,126s1.18,11.68,10.24,13.64S231.91,138.52,235.37,135Z"/><path class="cls-13" d="M247.3,114.7l-6.2,16.37-4.68,2.64C240,128.85,246.45,116.4,247.3,114.7Z"/><path class="cls-14" d="M227.26,216.2s9.79-38.74,14.91-70.12C242.17,146.08,227,180.17,227.26,216.2Z"/><path class="cls-14" d="M189.41,412s7.34-82.83,8-128c0,0,5.35,87-.64,127.91Z"/><path class="cls-14" d="M10.86,181.4s5.54,18.3,24.53,25.42,64.11,18.5,64.11,18.5S29.14,207.52,10.86,181.4Z"/><path class="cls-14" d="M211.1,60.6s.2,28.35-3.67,44.82C207.43,105.42,216,88.66,211.1,60.6Z"/><path class="cls-14" d="M243.2,93.71s1,15.27-4.18,24.9C239,118.61,249.56,106.87,243.2,93.71Z"/><path class="cls-14" d="M166.92,32.69s5.17,34.88.93,65.59C167.85,98.28,178.4,63.94,166.92,32.69Z"/><path class="cls-14" d="M13.35,61.3s15.59-8.42,33-10.21A57.45,57.45,0,0,1,13.35,61.3Z"/><path class="cls-14" d="M3,83.43S9.83,95.1,11.1,108.21s-3.26,41.36-3.26,41.36S8.67,101.36,3,83.43Z"/><path class="cls-14" d="M102.53,416.29s23.09-93.12,17.62-140.67C120.15,275.62,111.27,330.76,102.53,416.29Z"/><path class="cls-15" d="M121.45,116.49c1.22,5.43,18.09,18.7,30.5,14.63,0,0-15.48-6.28-22.3-9.11S121.45,116.49,121.45,116.49Z"/><path class="cls-15" d="M170.78,131.55s25.64,7.7,31.6-5.54C202.38,126,184.51,134.58,170.78,131.55Z"/><path class="cls-15" d="M223.25,138.85s9.71-6.71,13.15-7.1C236.4,131.75,232.79,138.83,223.25,138.85Z"/><path class="cls-7" d="M125.38,104.49s9.58,6.62,25.12,7,21-7.85,21-7.85A71.57,71.57,0,0,1,125.38,104.49Z"/><path class="cls-7" d="M178.25,108.56a22,22,0,0,0,13.27,7.91c8.95,1.72,16-6.4,16-6.4A48.86,48.86,0,0,1,178.25,108.56Z"/><path class="cls-7" d="M213.22,119a19.33,19.33,0,0,0,11.21,5.47c6.78.69,14.61-4.6,14.61-4.6S230.78,122.78,213.22,119Z"/></g></g></g></svg>