<svg xmlns="http://www.w3.org/2000/svg" xmlns:xlink="http://www.w3.org/1999/xlink" viewBox="0 0 276.29 613.86"><defs><style>.cls-1{isolation:isolate;}.cls-2{fill:url(#Áåçûìÿííûé_ãðàäèåíò_152);}.cls-14,.cls-3,.cls-4{fill:#d97290;}.cls-3{opacity:0.5;}.cls-10,.cls-14,.cls-3,.cls-4{mix-blend-mode:multiply;}.cls-4{opacity:0.31;}.cls-5{fill:url(#Áåçûìÿííûé_ãðàäèåíò_151);}.cls-6{fill:#f4af8f;}.cls-13,.cls-15,.cls-16,.cls-6,.cls-8{opacity:0.97;mix-blend-mode:soft-light;}.cls-7{fill:#e86c7d;}.cls-8{fill:#f5d4d2;}.cls-9{fill:#ab3f53;}.cls-10{fill:#f2bac0;opacity:0.6;}.cls-11{mix-blend-mode:screen;fill:url(#Áåçûìÿííûé_ãðàäèåíò_59);}.cls-12{fill:#b34e61;}.cls-13{fill:#f5ee8f;}.cls-14{opacity:0.3;}.cls-15{fill:#f4a996;}.cls-16{fill:#f5fbfd;}</style><linearGradient id="Áåçûìÿííûé_ãðàäèåíò_152" x1="-51.12" y1="7479.68" x2="-51.12" y2="7112.12" gradientTransform="matrix(-1, 0.08, 0.08, 1, -508.75, -7082.21)" gradientUnits="userSpaceOnUse"><stop offset="0" stop-color="#f58779"/><stop offset="0.98" stop-color="#fbb780"/></linearGradient><linearGradient id="Áåçûìÿííûé_ãðàäèåíò_151" x1="-48.12" y1="7726.37" x2="-48.12" y2="7328.52" gradientTransform="matrix(-1, 0.08, 0.08, 1, -508.75, -7082.21)" gradientUnits="userSpaceOnUse"><stop offset="0.02" stop-color="#fbb780"/><stop offset="1" stop-color="#f58779"/></linearGradient><linearGradient id="Áåçûìÿííûé_ãðàäèåíò_59" x1="-95.22" y1="7453.52" x2="51.89" y2="7453.52" gradientTransform="matrix(-1, 0.08, 0.08, 1, -508.75, -7082.21)" gradientUnits="userSpaceOnUse"><stop offset="0" stop-color="#010101"/><stop offset="0.03" stop-color="#0a0402"/><stop offset="0.39" stop-color="#692011"/><stop offset="0.68" stop-color="#ae351b"/><stop offset="0.89" stop-color="#d94222"/><stop offset="1" stop-color="#ea4724"/></linearGradient></defs><g class="cls-1"><g id="Layer_2" data-name="Layer 2"><g id="Layer_4" data-name="Layer 4"><path class="cls-2" d="M26.11,145c1.81,3.6,3.48,7.12,4.92,10.59C38.74,174,54.18,239.21,61.8,272.32c2.72,11.83,4.45,19.56,4.45,19.56s28.81,67.23,44.65,77.59C120.75,375.91,176.51,357,218,338.2c25.11-11.41,45-22.8,46.34-28.54,0,0,11.87-49.1,12-59.22s-13.15-30.94-41.68-28.56l-.05-.2c-.62-2-5.74-18.2-9.67-23.54-2.3-3.08-9.65-7.58-18.06-10.48-7.19-2.5-15.1-3.79-21.21-2-10.13,3-18,17.95-21.12,24.86-.86,1.88-1.38,3.15-1.49,3.45.1-2,2.74-43.64,3.87-57.14.27-3.45.68-6.94,1.09-10.36a.57.57,0,0,1,0-.24,1.8,1.8,0,0,1,0-.2.39.39,0,0,0,0-.16c1.25-10.09,2.68-19.07,2.15-22-.65-3.44,0-16.34.17-28,0-1.61,0-3.2,0-4.74,0-12.62,1.76-39.61.89-54.95S163.65,3.75,160.58,2.13s-25.14-5-33.47,2.75c-7.83,7.33-9.32,66.08-4.37,108.33.27,2.45.56,4.83.89,7.15,0,0-.31,9.44-.85,23,0,0,0,.43,0,1.19,0,.53-.06,1.26-.09,2.12s-.07,1.55-.09,2.47c0,.4,0,.8-.07,1.23-1.32,34-3.57,85.21-5.33,89-2.65,5.79-9.88,8.85-14,5S76.63,163.71,75,151.69c-.92-6.77-3.83-15.4-6.91-23.58v0c-2.37-6.36-4.78-12.48-6.43-17.32C59,102.87,51.46,70.29,44.74,49.92a1.74,1.74,0,0,0-.05-.22.13.13,0,0,1,0-.1v-.06l0-.1C42,41.52,39.51,35.53,37.54,33.68,30.45,27.09,1.24,24.81.05,63.61-1,97,15,122.57,26.11,145Z"/><path class="cls-3" d="M82.12,222.49,85,302.75,190.08,340.5,218,338.2c25.11-11.41,45-22.8,46.34-28.54,0,0,11.87-49.1,12-59.22l-13.79,6.93,1.59-15.12-7.73,11.44s-4.65,9.11-6.66,9.9-33.1,2.1-36.78-14.63c0,0,13.84-21.59,21.69-27.08l-.05-.2c-.62-2-5.74-18.2-9.67-23.54,0,0-10,21.5-13.51,32s-45.77,7.45-52.42-2.58l5.54-17.06L168,146.22a.57.57,0,0,0,0,.24c-1,5.94-9.2,54.41-12.84,59.82-3.91,5.72-27.33,4.55-30.95-3.09-2.79-5.9-2.1-38.34-1.68-52.83-1.32,34-3.57,85.21-5.33,89-2.65,5.79-9.88,8.85-14,5S76.63,163.71,75,151.69c-.92-6.77-3.83-15.4-6.91-23.58Z"/><path class="cls-4" d="M26.11,145c1.81,3.6,3.48,7.12,4.92,10.59C38.74,174,54.18,239.21,61.8,272.32l75.54-1.57s30.28-67.15,27.16-60.24c-.86,1.88-1.38,3.15-1.49,3.45.1-2,2.74-43.64,3.87-57.14.27-3.45.68-6.94,1.09-10.36a.57.57,0,0,1,0-.24,1.8,1.8,0,0,1,0-.2.39.39,0,0,0,0-.16c1.25-10.09,2.68-19.07,2.15-22-.65-3.44,0-16.34.17-28l-.44-.49S166.47,120.23,159,125s-27.45,8.08-36-11.4c-.08-.15-.15-.28-.23-.41.27,2.45.56,4.83.89,7.15,0,0-.31,9.44-.85,23,0,0,0,.43,0,1.19,0,.53-.06,1.26-.09,2.12s-.07,1.55-.09,2.47c0,.4,0,.8-.07,1.23-1.32,34-3.57,85.21-5.33,89-2.65,5.79-9.88,8.85-14,5S76.63,163.71,75,151.69c-.92-6.77-3.83-15.4-6.91-23.58v0c-2.37-6.36-4.78-12.48-6.43-17.32C59,102.87,51.46,70.29,44.74,49.92c1.36,6.94,16.65,83.49,13.7,91.28C55.84,148.06,37.7,152.65,26.11,145Z"/><path class="cls-5" d="M119.53,221.26c-25.32.83-41.31,1.09-47.07,2s-16.28,9.44-16.93,11.6-3.05,36.22-6.37,51.58c-2.19,10.2-9.3,28.27-13.25,41.51-2,6.69-3.25,12.16-2.61,14.71,1.88,7.65,10.74,21,19.13,28l0,0c8.52,7.14,69.32,38.67,77.34,52.93,5.21,9.23,4.06,65.81,2.57,104.94v0c-.83,21.61,1.32,78.45,1.32,78.45,40.24,19.15,100.41-8.26,100.41-8.26S215.33,425,216.74,422s25-15.43,29-22.8a66.89,66.89,0,0,0,3.94-9.39v0c3.07-8.72,6-20.42,6.64-30.16.52-7.68,2.88-21.88,4.85-33.2l0-.07c1.68-9.33,3.12-16.66,3.12-16.66-13.5,10.53-83.26,19.82-83.26,19.82-8.85-7.8-27.08-17.21-44-25.24-3.84-1.82-7.61-3.59-11.2-5.23-.1,0-.18-.09-.28-.11-14.16-6.45-25.23-11.21-25.39-12-.35-1.85-1.33-19-1.33-19s24.13,2.6,35.23,1.06,43.9-22.55,44.27-30.88c.26-6.42-1.93-15.92-5.17-20.43l-.23-.34a0,0,0,0,1,0,0v0h0a5.23,5.23,0,0,0-2.87-2.11C165.14,214.21,144.83,220.43,119.53,221.26Z"/><path class="cls-4" d="M172.86,217.24l0,0v0Z"/><path class="cls-4" d="M181.07,329.48c-8.85-7.8-27.08-17.21-44-25.24,27.08,14.51,47,38.5,47,38.5,36.05,12.62,56.43,34.53,65.66,47,3.07-8.72,6-20.42,6.64-30.16.52-7.68,2.88-21.88,4.85-33.2l0-.07c1.68-9.33,3.12-16.66,3.12-16.66C250.83,320.19,181.07,329.48,181.07,329.48Z"/><path class="cls-4" d="M137,304.24a107.62,107.62,0,0,0-11.2-5.23C129.42,300.65,133.19,302.42,137,304.24Z"/><path class="cls-4" d="M35.91,327.94c24.13-6.13,62.52-34.49,62.52-34.49a72.92,72.92,0,0,1,27.12,5.45c-14.16-6.45-25.23-11.2-25.39-12-.35-1.85-1.33-19-1.33-19s24.13,2.6,35.23,1.06,43.9-22.55,44.27-30.88c.26-6.42-1.93-15.92-5.17-20.43,1.37,2.26,7.25,13.24-2.49,23.36-10.93,11.34-70.3,21.56-80.63,17.73s-34.51-23.88-34.51-23.88c-.65,2.13-3.05,36.22-6.37,51.58C47,296.63,39.86,314.7,35.91,327.94Z"/><polygon class="cls-3" points="98.83 267.89 79.3 264.3 99.09 273.9 98.83 267.89"/><path class="cls-3" d="M98.83,267.89l1.33,19s39.94-.36,80.91,42.56c0,0,36.53-3.88,57.34-10.41l11.86-17,12.23-44.68,1.59-15.12L255,261.09s-5,18.82-7.34,24.63-15.28,15.3-20.09,15.54S209,295.14,207.16,292,212.92,249,212.92,249s14.23-20.86,21.69-27.08c0,0-20.16,12.74-23.25,16.89s-11.06,42-17.57,46.23-22,1.81-26.46-1.1-9.89-26-9.89-26S139.7,268,134.06,269,98.83,267.89,98.83,267.89Z"/><path class="cls-6" d="M166.82,215.17c3.15-.34,6.48,12.54,1.3,15.93s-39.56,4.5-48.19-1.82S132,218.84,166.82,215.17Z"/><path class="cls-7" d="M166.84,231.7s-8.68,3.8-25.55,3.39S113,228.84,112,225.88s17.31-5.21,17.31-5.21-11.45,2.84-10.72,6.54S147.57,237.61,166.84,231.7Z"/><path class="cls-8" d="M162.89,215.48s2.9,8.58,1.53,16.88a11.72,11.72,0,0,0,4.2-1.65c1.82-1.26,4.07-11.67-1.8-15.54Z"/><path class="cls-8" d="M129.31,220.67s3.16,1.81,2.74,4.18-10.79,4.47-10.79,4.47-3.12-.83-2.5-3.26S129.31,220.67,129.31,220.67Z"/><path class="cls-6" d="M208.78,290.74s1.65,7.6,17.42,9.53c.7.08,1.36-.63,2-1.9,1.88-3.94,3-13,1.33-18.69l-.22-.64a8.43,8.43,0,0,0-.3-.93c0-.06-.05-.13-.08-.16-2-4.25-9.08-5.48-14.26-1.56-2.86,2.14-5.12,5.86-5.68,11.47a.13.13,0,0,1,0,.1A22.18,22.18,0,0,0,208.78,290.74Z"/><path class="cls-6" d="M166.23,280.8a6.12,6.12,0,0,0,.85,1.57c2,2.44,12.5,7.74,21.81,2a4.43,4.43,0,0,0,.68-.55,8.7,8.7,0,0,0,1.86-4.57v-.1c1-6.41-.85-16.76-4.52-22.92a12,12,0,0,0-4.11-4.37c-6.59-3.58-13.57-.33-16.81,4.71a.53.53,0,0,0-.11.21,12.37,12.37,0,0,0-1.33,2.74,5.33,5.33,0,0,0-.2.74C162.89,266.18,164.49,276.49,166.23,280.8Z"/><path class="cls-3" d="M166,256.54l-.81,1.81c2.91-4.35,12.91-10.09,19.28-2.7,6.74,7.84,7,21.29,7,23.47,1.35-8.48-2.36-23.89-8.63-27.29C176.2,248.25,169.22,251.5,166,256.54Z"/><path class="cls-3" d="M164.34,260.23l.83-1.88a4.66,4.66,0,0,0-.63,1.14A5.33,5.33,0,0,0,164.34,260.23Z"/><path class="cls-3" d="M208.94,287.86c.62-2.52,3.81-13.82,13.74-11.21,11,2.89,5.65,21.08,5.47,21.72,2-4.32,3.2-14.76.81-20.26C226,271.37,210.49,271.89,208.94,287.86Z"/><path class="cls-8" d="M208.78,290.74s1.65,7.6,17.42,9.53c.7.08,1.36-.63,2-1.9C228.15,298.37,216.07,298.11,208.78,290.74Z"/><path class="cls-8" d="M166.23,280.8a6.12,6.12,0,0,0,.85,1.57c2,2.44,12.5,7.74,21.81,2a4.43,4.43,0,0,0,.68-.55C186.12,284.3,174.78,285.49,166.23,280.8Z"/><path class="cls-9" d="M157.44,257.87s-17.62,12.89-23.94,14.45-32.26-2.56-33.34,14.6l-1.33-19s26.38,2.37,35.23,1.06S157.44,257.87,157.44,257.87Z"/><path class="cls-9" d="M166.74,283.4s1,3,19.29,7.91,37.47,12.1,42.52,11.9,18.06-15.58,18.06-15.58-14.86,14.38-19,13.63-17.81-6-20.42-9.24,3.64-31.29,3.64-31.29-7,15.36-14.79,21.67S171.8,288.39,166.74,283.4Z"/><path class="cls-9" d="M178.33,238.07s-2.05,9.89-19.78,24.16l-9.86.81S167.57,253.94,178.33,238.07Z"/><path class="cls-10" d="M132.4,528.45c1.2-5,25.61-112.42,7.6-125.17-18.19-12.83-85.43-32.18-87.53-32.56,8.52,7.14,69.32,38.67,77.34,52.93C135,432.88,133.86,489.33,132.4,528.45Z"/><path class="cls-10" d="M188.67,404c-37.21-1.52-136.2-33.24-136.2-33.24,8.52,7.14,69.32,38.67,77.34,52.93,5.21,9.23,4.06,65.81,2.57,104.94v0c-.83,21.61,1.32,78.45,1.32,78.45,40.24,19.15,100.41-8.26,100.41-8.26S215.33,425,216.74,422s25-15.43,29-22.8C245.76,399.17,225.89,405.48,188.67,404Z"/><path class="cls-3" d="M52.47,370.72c8.52,7.14,69.32,38.67,77.34,52.93L140,403.28C121.81,390.45,54.57,371.1,52.47,370.72Z"/><path class="cls-11" d="M200.22,377.52c2.9,12.23-84.34,10.8-122.95-12.36-26.89-16.13-29-29.39-28.21-35.86s33.47-30.18,59.6-28.88S191.94,342.54,200.22,377.52Z"/><path class="cls-12" d="M191.33,355.78s-16.73-44.08-91.17-68.86C100.16,286.92,174.42,294.34,191.33,355.78Z"/><path class="cls-13" d="M219.73,196s-24.93-1.3-35-7.42A38.93,38.93,0,0,1,219.73,196Z"/><path class="cls-13" d="M263.35,233.25s-19.39,0-28.74-11.37C234.61,221.88,253.93,217.18,263.35,233.25Z"/><path class="cls-13" d="M159.51,4.1s-19.76,5.34-32.4.78C127.11,4.88,145.22-3.23,159.51,4.1Z"/><path class="cls-13" d="M37.54,33.68S14.41,43.4,3.65,54.26c0,0,1.71-13.08,10.33-18.64S37.54,33.68,37.54,33.68Z"/><path class="cls-14" d="M247.45,263.89a48.78,48.78,0,0,1-22,1.81c-12.35-1.79-12.05-15-12.05-15S220.33,264.85,247.45,263.89Z"/><path class="cls-14" d="M205.71,234.68s-17.6,6.57-28.58,6.49a17.46,17.46,0,0,0,1-5.53S184.23,237.2,205.71,234.68Z"/><path class="cls-15" d="M249.3,268.84l-10.92,24s7.64-6.38,8-8.42S249.3,268.84,249.3,268.84Z"/><path class="cls-16" d="M83.89,373.63s-22.71-2.89-27.39-6.77-20.64-17.74-21.44-25.38,13.27-47.34,13.27-47.34-9.79,36-6.12,46.75S63.28,367.7,83.89,373.63Z"/><path class="cls-16" d="M201.75,605.44s22.67-8,26.84-13-16-164-16-164S225.3,579,219.53,588.48,201.75,605.44,201.75,605.44Z"/><path class="cls-16" d="M256.85,323.25s-2.8,48.7-8.75,64.41-28.72,27.19-28.72,27.19a76,76,0,0,0,24.2-33.41C251.37,359.79,256.85,323.25,256.85,323.25Z"/><path class="cls-16" d="M161.33,8.53s5.4,9.92,6.32,31.29-.72,85.38-.72,85.38S162.08,14.93,161.33,8.53Z"/><path class="cls-16" d="M4.22,61.18S15,118.34,32,145.86c0,0-17.77-23.31-24.81-48.73S4.22,61.18,4.22,61.18Z"/><path class="cls-16" d="M137,434.62s3.7,139.74.46,168.72C137.43,603.34,147.07,492.77,137,434.62Z"/><path class="cls-16" d="M111,222.18s-17.56,4.68-26.73,4.18-11.81-3.11-11.81-3.11Z"/><path class="cls-6" d="M55.53,234.85S64,236.41,70,233.53s2.48-10.28,2.48-10.28S64.38,226,55.53,234.85Z"/><path class="cls-3" d="M178.33,238.07l-2.5-4.6s-.36-13.71-5.84-18.34C170,215.13,178.08,217.29,178.33,238.07Z"/></g></g></g></svg>